<svg xmlns="http://www.w3.org/2000/svg" viewBox="0 0 300 200" role="img" aria-label="A rising chart">
<g stroke-linejoin="round">
    <path d="M24 130 L36 122 L66 122 L66 182 L54 190 L24 190Z" fill="#2b4fb4" stroke="#15161c" stroke-width="4" />
    <path d="M54 190 L54 130 L24 130" fill="none" stroke="#15161c" stroke-width="4" />
    <rect x="30" y="136" width="18" height="54" fill="#2f8b57" />
    <path d="M54 130 L66 122" stroke="#15161c" stroke-width="4" />
  </g>
      <g stroke-linejoin="round">
    <path d="M84 98 L96 90 L126 90 L126 182 L114 190 L84 190Z" fill="#2b4fb4" stroke="#15161c" stroke-width="4" />
    <path d="M114 190 L114 98 L84 98" fill="none" stroke="#15161c" stroke-width="4" />
    <rect x="90" y="104" width="18" height="86" fill="#2f8b57" />
    <path d="M114 98 L126 90" stroke="#15161c" stroke-width="4" />
  </g>
      <g stroke-linejoin="round">
    <path d="M144 114 L156 106 L186 106 L186 182 L174 190 L144 190Z" fill="#2b4fb4" stroke="#15161c" stroke-width="4" />
    <path d="M174 190 L174 114 L144 114" fill="none" stroke="#15161c" stroke-width="4" />
    <rect x="150" y="120" width="18" height="70" fill="#2f8b57" />
    <path d="M174 114 L186 106" stroke="#15161c" stroke-width="4" />
  </g>
      <g stroke-linejoin="round">
    <path d="M204 60 L216 52 L246 52 L246 182 L234 190 L204 190Z" fill="#2b4fb4" stroke="#15161c" stroke-width="4" />
    <path d="M234 190 L234 60 L204 60" fill="none" stroke="#15161c" stroke-width="4" />
    <rect x="210" y="66" width="18" height="124" fill="#2f8b57" />
    <path d="M234 60 L246 52" stroke="#15161c" stroke-width="4" />
  </g>
      <path d="M18 132 L70 92 L104 116 L176 46" fill="none" stroke="#2f8b57" stroke-width="14" stroke-linecap="round" stroke-linejoin="round" />
      <path d="M150 34 L194 28 L188 72Z" fill="#2f8b57" stroke="#2f8b57" stroke-width="6" stroke-linejoin="round" />
      <g transform="translate(262 40)" stroke-linejoin="round">
        <circle r="18" fill="#e8a93c" stroke="#15161c" stroke-width="3.5" />
        <path d="M0 -11 L0 11 M-6 -5 Q0 -10 6 -5 Q0 0 -6 5 Q0 10 6 5" stroke="#15161c" stroke-width="3" fill="none" stroke-linecap="round" />
      </g>
      <g transform="translate(232 108) rotate(-18)" stroke-linejoin="round">
        <ellipse rx="16" ry="10" fill="#e8a93c" stroke="#15161c" stroke-width="3" />
      </g>
      <g transform="translate(118 20) rotate(14)" stroke-linejoin="round">
        <ellipse rx="14" ry="9" fill="#e8a93c" stroke="#15161c" stroke-width="3" />
      </g>
</svg>
